<?xml version="1.0" encoding="UTF-8" standalone="no"?>
<svg
   xmlns:dc="http://purl.org/dc/elements/1.1/"
   xmlns:cc="http://creativecommons.org/ns#"
   xmlns:rdf="http://www.w3.org/1999/02/22-rdf-syntax-ns#"
   xmlns:svg="http://www.w3.org/2000/svg"
   xmlns="http://www.w3.org/2000/svg"
   xmlns:sodipodi="http://sodipodi.sourceforge.net/DTD/sodipodi-0.dtd"
   xmlns:inkscape="http://www.inkscape.org/namespaces/inkscape"
   width="1041.277"
   height="554.141"
   viewBox="0 0 1041.277 554.141"
   version="1.1"
   id="svg1380"
   sodipodi:docname="undraw_docusaurus_react.svg"
   inkscape:version="1.0.2 (e86c870879, 2021-01-15, custom)">
  <path
     style="fill:none;stroke:#6b4b85;stroke-width:6;stroke-linecap:butt;stroke-linejoin:miter;stroke-miterlimit:4;stroke-dasharray:none;stroke-opacity:1"
     d="m 206.05348,393.94726 h 137.3458"
     id="path872-5"
     sodipodi:nodetypes="cc" />
  <metadata
     id="metadata1386">
    <rdf:RDF>
      <cc:Work
         rdf:about="">
        <dc:format>image/svg+xml</dc:format>
        <dc:type
           rdf:resource="http://purl.org/dc/dcmitype/StillImage" />
      </cc:Work>
    </rdf:RDF>
  </metadata>
  <defs
     id="defs1384" />
  <sodipodi:namedview
     pagecolor="#ffffff"
     bordercolor="#666666"
     borderopacity="1"
     objecttolerance="10"
     gridtolerance="10"
     guidetolerance="10"
     inkscape:pageopacity="0"
     inkscape:pageshadow="2"
     inkscape:window-width="1920"
     inkscape:window-height="986"
     id="namedview1382"
     showgrid="false"
     inkscape:zoom="0.96459612"
     inkscape:cx="372.79386"
     inkscape:cy="423.39536"
     inkscape:window-x="-11"
     inkscape:window-y="-11"
     inkscape:window-maximized="1"
     inkscape:current-layer="svg1380"
     inkscape:document-rotation="0" />
  <path
     id="Path_299"
     data-name="Path 299"
     d="m 961.469,438.175 q -1.74,3.75 -3.47,7.4 -2.7,5.67 -5.33,11.12 c -0.78,1.61 -1.56,3.19 -2.32,4.77 -8.6,17.57 -16.63,33.11 -23.45,45.89 a 73.21,73.21 0 0 1 -63.81,38.7 l -151.65,1.65 h -1.6 l -13,0.14 -11.12,0.12 -34.1,0.37 h -1.38 l -17.36,0.19 h -0.53 l -107,1.16 -95.51,1 -11.11,0.12 -69,0.75 h -0.08 l -44.75,0.48 h -0.48 l -141.5,1.53 -42.33,0.46 a 87.991,87.991 0 0 1 -10.79,-0.54 v 0 c -1.22,-0.14 -2.44,-0.3 -3.65,-0.49 a 87.38,87.38 0 0 1 -51.29,-27.54 c -18.21,-20.03 -31.46,-43.4 -40.36,-68.76 q -1.93,-5.49 -3.6,-11.12 c -30.81,-104.15 6.75,-238.52 74.35,-328.44 q 4.25,-5.64 8.64,-11 l 0.07,-0.08 c 20.79,-25.52 44.1,-46.84 68.93,-62 44,-26.91 92.75,-34.49 140.7,-11.9 40.57,19.12 78.45,28.11 115.17,30.55 3.71,0.24 7.42,0.42 11.11,0.53 84.23,2.65 163.17,-27.7 255.87,-47.29 3.69,-0.78 7.39,-1.55 11.12,-2.28 66.13,-13.16 139.49,-20.1 226.73,-5.51 a 189.089,189.089 0 0 1 26.76,6.4 q 5.77,1.86 11.12,4 c 41.64,16.94 64.35,48.24 74,87.46 q 1.37,5.46 2.37,11.11 c 17.11,94.34 -33,228.16 -76.37,321.05 z"
     fill="#f2f2f2"
     style="stroke:#6b4b85;stroke-opacity:1;fill:#e6ffff;fill-opacity:1;stroke-width:6;stroke-miterlimit:4;stroke-dasharray:none" />
  <path
     id="Path_300"
     data-name="Path 300"
     d="m 497.009,445.575 a 95.21,95.21 0 0 1 -1.87,11.12 h 93.7 v -11.12 z m -78.25,62.81 11.11,-0.09 v -27.47 c -3.81,-0.17 -7.52,-0.34 -11.11,-0.52 z m -232.92,-62.81 v 11.12 h 198.5 v -11.12 z m 849.68,-339.52 h -74 v -87.49 q -5.35,-2.17 -11.12,-4 v 91.49 h -253.54 v -92.42 c -3.73,0.73 -7.43,1.5 -11.12,2.28 v 90.14 h -255.87 v -42.85 c -3.69,-0.11 -7.4,-0.29 -11.11,-0.53 v 43.38 h -255.87 v -62 c -24.83,15.16 -48.14,36.48 -68.93,62 h -0.07 v 0.08 q -4.4,5.4 -8.64,11 h 8.64 v 328.44 h -83 q 1.66,5.63 3.6,11.12 h 79.39 v 93.62 a 87,87 0 0 0 12.2,2.79 c 1.21,0.19 2.43,0.35 3.65,0.49 v 0 a 87.991,87.991 0 0 0 10.79,0.54 l 42.33,-0.46 v -97 h 255.91 v 94.21 l 11.11,-0.12 v -94.07 h 255.87 v 91.36 l 11.12,-0.12 v -91.24 h 253.49 v 4.77 c 0.76,-1.58 1.54,-3.16 2.32,-4.77 q 2.63,-5.45 5.33,-11.12 1.73,-3.64 3.47,-7.4 v -321 h 76.42 q -1.01,-5.69 -2.37,-11.12 z m -872.63,339.52 v -328.44 h 255.87 v 328.44 z m 267,0 v -328.44 h 255.85 v 328.44 z m 520.48,0 h -253.51 v -328.44 h 253.49 z"
     opacity="0.1"
     style="fill:#000000;opacity:0.57575758" />
  <path
     id="Path_301"
     data-name="Path 301"
     d="m 863.079,533.615 v 13 l -151.92,1.4 -1.62,0.03 -57.74,0.53 -1.38,0.02 -17.55,0.15 h -0.52 l -106.98,0.99 -175.61,1.63 h -0.15 l -44.65,0.42 -0.48,0.01 -198.4,1.82 v -15 l 46.65,-28 93.6,-0.78 2,-0.01 0.66,-0.01 2,-0.03 44.94,-0.37 2.01,-0.01 0.64,-0.01 2,-0.01 14.41,-0.12 0.38,-0.01 35.55,-0.3 h 0.29 l 277.4,-2.34 6.79,-0.05 h 0.68 l 5.18,-0.05 37.65,-0.31 2,-0.03 1.85,-0.02 h 0.96 l 11.71,-0.09 2.32,-0.03 3.11,-0.02 9.75,-0.09 15.47,-0.13 2,-0.02 3.48,-0.02 h 0.65 l 74.71,-0.64 z"
     fill="#65617d" />
  <path
     id="Path_302"
     data-name="Path 302"
     d="m 863.079,533.615 v 13 l -151.92,1.4 -1.62,0.03 -57.74,0.53 -1.38,0.02 -17.55,0.15 h -0.52 l -106.98,0.99 -175.61,1.63 h -0.15 l -44.65,0.42 -0.48,0.01 -198.4,1.82 v -15 l 46.65,-28 93.6,-0.78 2,-0.01 0.66,-0.01 2,-0.03 44.94,-0.37 2.01,-0.01 0.64,-0.01 2,-0.01 14.41,-0.12 0.38,-0.01 35.55,-0.3 h 0.29 l 277.4,-2.34 6.79,-0.05 h 0.68 l 5.18,-0.05 37.65,-0.31 2,-0.03 1.85,-0.02 h 0.96 l 11.71,-0.09 2.32,-0.03 3.11,-0.02 9.75,-0.09 15.47,-0.13 2,-0.02 3.48,-0.02 h 0.65 l 74.71,-0.64 z"
     opacity="0.2" />
  <path
     id="Path_303"
     data-name="Path 303"
     d="m 296.089,483.625 v 24.49 a 6.13,6.13 0 0 1 -3.5,5.54 6,6 0 0 1 -2.5,0.6 l -34.9,0.74 a 6,6 0 0 1 -2.7,-0.57 6.12,6.12 0 0 1 -3.57,-5.57 v -25.23 z"
     fill="#3f3d56" />
  <path
     id="Path_304"
     data-name="Path 304"
     d="m 296.089,483.625 v 24.49 a 6.13,6.13 0 0 1 -3.5,5.54 6,6 0 0 1 -2.5,0.6 l -34.9,0.74 a 6,6 0 0 1 -2.7,-0.57 6.12,6.12 0 0 1 -3.57,-5.57 v -25.23 z"
     opacity="0.1" />
  <path
     id="Path_305"
     data-name="Path 305"
     d="m 298.089,483.625 v 24.49 a 6.13,6.13 0 0 1 -3.5,5.54 6,6 0 0 1 -2.5,0.6 l -34.9,0.74 a 6,6 0 0 1 -2.7,-0.57 6.12,6.12 0 0 1 -3.57,-5.57 v -25.23 z"
     fill="#3f3d56" />
  <rect
     id="Rectangle_137"
     data-name="Rectangle 137"
     width="47.169998"
     height="31.5"
     fill="#3f3d56"
     x="680.909"
     y="483.61499" />
  <rect
     id="Rectangle_138"
     data-name="Rectangle 138"
     width="47.169998"
     height="31.5"
     opacity="0.1"
     x="680.909"
     y="483.61499" />
  <rect
     id="Rectangle_139"
     data-name="Rectangle 139"
     width="47.169998"
     height="31.5"
     fill="#3f3d56"
     x="678.909"
     y="483.61499" />
  <path
     id="Path_306"
     data-name="Path 306"
     d="m 298.079,483.615 v 4.97 l -47.17,1.26 v -6.23 z"
     opacity="0.1" />
  <path
     id="Path_307"
     data-name="Path 307"
     d="m 381.339,312.325 v 168.2 a 4,4 0 0 1 -3.85,3.95 l -191.65,5.1 h -0.05 a 4,4 0 0 1 -3.95,-3.95 v -173.3 a 4,4 0 0 1 3.95,-3.95 h 191.6 a 4,4 0 0 1 3.95,3.95 z"
     fill="#65617d" />
  <path
     id="Path_308"
     data-name="Path 308"
     d="m 185.839,308.375 v 181.2 h -0.05 a 4,4 0 0 1 -3.95,-3.95 v -173.3 a 4,4 0 0 1 3.95,-3.95 z"
     opacity="0.1" />
  <path
     id="Path_309"
     data-name="Path 309"
     d="m 194.579,319.115 h 177.5 v 148.25 l -177.5,4 z"
     fill="#39374d"
     style="fill:#f2f2f2" />
  <path
     style="fill:none;stroke:#6b4b85;stroke-width:6;stroke-linecap:round;stroke-linejoin:miter;stroke-miterlimit:4;stroke-dasharray:none;stroke-opacity:1"
     d="m 216.42051,349.31877 h 137.3458"
     id="path872"
     sodipodi:nodetypes="cc" />
  <path
     style="fill:none;stroke:#6b4b85;stroke-width:6;stroke-linecap:round;stroke-linejoin:miter;stroke-miterlimit:4;stroke-dasharray:none;stroke-opacity:1"
     d="m 216.42051,378.01763 h 137.3458"
     id="path872-6"
     sodipodi:nodetypes="cc" />
  <path
     id="Path_310"
     data-name="Path 310"
     d="m 726.079,483.615 v 6.41 l -47.17,-1.26 v -5.15 z"
     opacity="0.1" />
  <path
     id="Path_311"
     data-name="Path 311"
     d="m 788.339,312.325 v 173.3 a 4,4 0 0 1 -4,3.95 v 0 l -191.69,-5.1 a 4,4 0 0 1 -3.85,-3.95 v -168.2 a 4,4 0 0 1 3.95,-3.95 h 191.6 a 4,4 0 0 1 3.99,3.95 z"
     fill="#65617d" />
  <path
     id="Path_312"
     data-name="Path 312"
     d="m 788.339,312.325 v 173.3 a 4,4 0 0 1 -4,3.95 v 0 -181.2 0 a 4,4 0 0 1 4,3.95 z"
     opacity="0.1" />
  <path
     id="Path_313"
     data-name="Path 313"
     d="m 775.579,319.115 h -177.5 v 148.25 l 177.5,4 z"
     fill="#39374d"
     style="fill:#f2f2f2" />
  <path
     id="Path_314"
     data-name="Path 314"
     d="m 583.839,312.325 v 168.2 a 4,4 0 0 1 -3.85,3.95 l -191.65,5.1 v 0 a 4,4 0 0 1 -4,-3.95 v -173.3 a 4,4 0 0 1 3.95,-3.95 h 191.6 a 4,4 0 0 1 3.95,3.95 z"
     fill="#65617d" />
  <path
     id="Path_315"
     data-name="Path 315"
     d="m 397.079,319.115 h 177.5 v 148.25 l -177.5,4 z"
     fill="#4267b2" />
  <path
     id="Path_316"
     data-name="Path 316"
     d="m 863.079,533.615 v 13 l -151.92,1.4 -1.62,0.03 -57.74,0.53 -1.38,0.02 -17.55,0.15 h -0.52 l -106.98,0.99 -175.61,1.63 h -0.15 l -44.65,0.42 -0.48,0.01 -198.4,1.82 v -15 l 202.51,-1.33 h 0.48 l 40.99,-0.28 h 0.19 l 283.08,-1.87 h 0.29 l 0.17,-0.01 h 0.47 l 4.79,-0.03 h 1.46 l 74.49,-0.5 4.4,-0.02 0.98,-0.01 z"
     opacity="0.1" />
  <circle
     id="Ellipse_111"
     data-name="Ellipse 111"
     cx="487.24899"
     cy="298.11499"
     r="51.330002"
     fill="#fbbebe" />
  <path
     id="Path_317"
     data-name="Path 317"
     d="m 538.589,377.125 c 0,0 -99.5,12 -90,0 3.44,-4.34 4.39,-17.2 4.2,-31.85 -0.06,-4.45 -0.22,-9.06 -0.45,-13.65 -1.1,-22 -3.75,-43.5 -3.75,-43.5 0,0 87,-41 77,-8.5 -4,13.13 -2.69,31.57 0.35,48.88 0.89,5.05 1.92,10 3,14.7 a 344.66,344.66 0 0 0 9.65,33.92 z"
     fill="#fbbebe" />
  <path
     id="Path_318"
     data-name="Path 318"
     d="m 506.119,373.055 c 11.51,-2.13 23.7,-6 34.53,-1.54 2.85,1.17 5.47,2.88 8.39,3.86 2.92,0.98 6.12,1.22 9.16,1.91 10.68,2.42 19.34,10.55 24.9,20 5.56,9.45 8.44,20.14 11.26,30.72 l 6.9,25.83 c 6,22.45 12,45.09 13.39,68.3 a 2437.506,2437.506 0 0 1 -250.84,1.43 c 5.44,-10.34 11,-21.31 10.54,-33 -0.46,-11.69 -7.19,-23.22 -4.76,-34.74 1.55,-7.34 6.57,-13.39 9.64,-20.22 8.75,-19.52 1.94,-45.79 17.32,-60.65 6.92,-6.68 17,-9.21 26.63,-8.89 12.28,0.41 24.85,4.24 37,6.11 15.56,2.36 30.26,3.76 45.94,0.88 z"
     fill="#ff6584" />
  <path
     id="Path_319"
     data-name="Path 319"
     d="m 637.019,484.225 -0.1,1.43 v 0.1 l -0.17,2.3 -1.33,18.51 -1.61,22.3 -0.46,6.28 -1,13.44 v 0.17 l -107,1 -175.59,1.9 v 0.84 h -0.14 v -1.12 l 0.45,-14.36 0.86,-28.06 0.74,-23.79 0.07,-2.37 a 10.53,10.53 0 0 1 11.42,-10.17 c 4.72,0.4 10.85,0.89 18.18,1.41 l 3,0.22 c 42.33,2.94 120.56,6.74 199.5,2 1.66,-0.09 3.33,-0.19 5,-0.31 12.24,-0.77 24.47,-1.76 36.58,-3 a 10.53,10.53 0 0 1 11.6,11.23 z"
     opacity="0.1" />
  <path
     id="Path_320"
     data-name="Path 320"
     d="m 349.729,552.495 v -0.84 l 175.62,-1.91 107,-1 h 0.3 v -0.17 l 1,-13.44 0.43,-6 1.64,-22.61 1.29,-17.9 v -0.44 a 10.617,10.617 0 0 0 -0.11,-2.47 0.3,0.3 0 0 0 0,-0.1 10.391,10.391 0 0 0 -2,-4.64 10.54,10.54 0 0 0 -9.42,-4 c -12.11,1.24 -24.34,2.23 -36.58,3 -1.67,0.12 -3.34,0.22 -5,0.31 -78.94,4.69 -157.17,0.89 -199.5,-2 l -3,-0.22 c -7.33,-0.52 -13.46,-1 -18.18,-1.41 a 10.54,10.54 0 0 0 -11.24,8.53 11,11 0 0 0 -0.18,1.64 l -0.68,22.16 -0.93,28.07 -0.44,14.36 v 1.12 z"
     fill="#3f3d56" />
  <path
     id="Path_321"
     data-name="Path 321"
     d="m 637.319,491.235 -1.23,15.33 -1.83,22.85 -0.46,5.72 -1,12.81 -0.06,0.64 v 0.17 0 l -0.15,1.48 0.11,-1.48 h -0.29 l -107,1 -175.65,1.9 v -0.28 l 0.49,-14.36 1,-28.06 0.64,-18.65 a 6.36,6.36 0 0 1 3.06,-5.25 6.25,6.25 0 0 1 3.78,-0.9 c 2.1,0.17 4.68,0.37 7.69,0.59 4.89,0.36 10.92,0.78 17.94,1.22 13,0.82 29.31,1.7 48,2.42 52,2 122.2,2.67 188.88,-3.17 3,-0.26 6.1,-0.55 9.13,-0.84 a 6.26,6.26 0 0 1 3.48,0.66 5.159,5.159 0 0 1 0.86,0.54 6.14,6.14 0 0 1 2,2.46 3.564,3.564 0 0 1 0.25,0.61 6.279,6.279 0 0 1 0.36,2.59 z"
     opacity="0.1" />
  <path
     id="Path_322"
     data-name="Path 322"
     d="m 298.089,504.925 v 3.19 a 6.13,6.13 0 0 1 -3.5,5.54 l -40.1,0.77 a 6.12,6.12 0 0 1 -3.57,-5.57 v -3 z"
     opacity="0.1" />
  <path
     id="Path_323"
     data-name="Path 323"
     d="m 298.579,515.535 -52.25,1 v -8.67 l 52.25,-1 z"
     fill="#3f3d56" />
  <path
     id="Path_324"
     data-name="Path 324"
     d="m 298.579,515.535 -52.25,1 v -8.67 l 52.25,-1 z"
     opacity="0.1" />
  <path
     id="Path_325"
     data-name="Path 325"
     d="m 300.579,515.535 -52.25,1 v -8.67 l 52.25,-1 z"
     fill="#3f3d56" />
  <path
     id="Path_326"
     data-name="Path 326"
     d="m 679.209,506.925 v 3.19 a 6.13,6.13 0 0 0 3.5,5.54 l 40.1,0.77 a 6.12,6.12 0 0 0 3.57,-5.57 v -3 z"
     opacity="0.1" />
  <path
     id="Path_327"
     data-name="Path 327"
     d="m 678.709,517.535 52.25,1 v -8.67 l -52.25,-1 z"
     opacity="0.1" />
  <path
     id="Path_328"
     data-name="Path 328"
     d="m 676.709,517.535 52.25,1 v -8.67 l -52.25,-1 z"
     fill="#3f3d56" />
  <path
     id="Path_329"
     data-name="Path 329"
     d="m 454.779,313.845 c 4.99864,42.44392 63.51051,40.23089 86.13187,30.48563 9.68919,-18.53018 24.3871,-30.29618 19.61469,-49.27563 -2.87,-11.58 -3.72656,-22.26 -9.29656,-32.81 -4.46,-8.46 -9.3,-17.31 -17.46,-22.28 -5.1,-3.1 -11,-4.39 -16.88,-5.64 l -25.37,-5.43 c -5.55,-1.19 -11.26,-2.38 -16.87,-1.51 -9.47,1.48 -16.14,8.32 -22,15.34 -4.59,5.46 -15.81,15.71 -16.6,22.86 -0.72,6.59 5.1,17.63 6.09,24.58 1.3,9 2.22,6 7.3,11.52 3.21,3.42 5.28,7.37 5.34,12.16 z"
     fill="#3f3d56"
     sodipodi:nodetypes="ccccccccccccc" />
  <g
     id="g1082"
     style="stroke-width:6;stroke-miterlimit:4;stroke-dasharray:none;paint-order:stroke fill markers;fill:none;fill-opacity:1;stroke:#6b4b85;stroke-opacity:1">
    <path
       style="fill:none;stroke:#6b4b85;stroke-width:6;stroke-linecap:butt;stroke-linejoin:miter;stroke-opacity:1;stroke-miterlimit:4;stroke-dasharray:none;paint-order:stroke fill markers;fill-opacity:1"
       d="m 608.1322,334.23453 154.01782,1.58782 0,118.29203 -154.01782,-3.17562 z"
       id="path1073"
       sodipodi:nodetypes="ccccc" />
    <path
       style="fill:none;stroke:#6b4b85;stroke-width:6;stroke-linecap:butt;stroke-linejoin:miter;stroke-opacity:1;stroke-miterlimit:4;stroke-dasharray:none;paint-order:stroke fill markers;fill-opacity:1"
       d="M 729.59986,336.61626 V 450.14485"
       id="path1075" />
    <path
       style="fill:none;stroke:#6b4b85;stroke-width:6;stroke-linecap:butt;stroke-linejoin:miter;stroke-opacity:1;stroke-miterlimit:4;stroke-dasharray:none;paint-order:stroke fill markers;fill-opacity:1"
       d="m 729.59986,421.56423 h 31.75625"
       id="path1077" />
  </g>
  <path
     style="fill:none;stroke:#6b4b85;stroke-width:6;stroke-linecap:round;stroke-linejoin:miter;stroke-miterlimit:4;stroke-dasharray:none;stroke-opacity:1"
     d="m 216.42051,406.71652 h 137.3458"
     id="path872-6-3"
     sodipodi:nodetypes="cc" />
  <path
     style="fill:none;stroke:#6b4b85;stroke-width:6;stroke-linecap:round;stroke-linejoin:miter;stroke-miterlimit:4;stroke-dasharray:none;stroke-opacity:1"
     d="m 216.42051,435.4154 h 137.3458"
     id="path872-6-3-2"
     sodipodi:nodetypes="cc" />
</svg>
