<?xml version="1.0" encoding="UTF-8" standalone="no"?>
<svg
   xmlns:osb="http://www.openswatchbook.org/uri/2009/osb"
   xmlns:dc="http://purl.org/dc/elements/1.1/"
   xmlns:cc="http://creativecommons.org/ns#"
   xmlns:rdf="http://www.w3.org/1999/02/22-rdf-syntax-ns#"
   xmlns:svg="http://www.w3.org/2000/svg"
   xmlns="http://www.w3.org/2000/svg"
   xmlns:sodipodi="http://sodipodi.sourceforge.net/DTD/sodipodi-0.dtd"
   xmlns:inkscape="http://www.inkscape.org/namespaces/inkscape"
   id="ac356da0-b129-4ca5-aecc-4700531dd101"
   data-name="Layer 1"
   width="1129"
   height="663"
   viewBox="0 0 1129 663"
   version="1.1"
   sodipodi:docname="undraw_docusaurus_tree.svg"
   inkscape:version="1.0.2 (e86c870879, 2021-01-15, custom)">
  <metadata
     id="metadata1287">
    <rdf:RDF>
      <cc:Work
         rdf:about="">
        <dc:format>image/svg+xml</dc:format>
        <dc:type
           rdf:resource="http://purl.org/dc/dcmitype/StillImage" />
      </cc:Work>
    </rdf:RDF>
  </metadata>
  <defs
     id="defs1285">
    <inkscape:perspective
       sodipodi:type="inkscape:persp3d"
       inkscape:vp_x="-115.59402 : 87.723438 : 1"
       inkscape:vp_y="0 : 977.91539 : 0"
       inkscape:vp_z="429.6992 : 97.558241 : 1"
       inkscape:persp3d-origin="104.92419 : 66.372285 : 1"
       id="perspective121" />
    <inkscape:perspective
       sodipodi:type="inkscape:persp3d"
       inkscape:vp_x="-81.845529 : 83.722395 : 1"
       inkscape:vp_y="0 : 900.81023 : 0"
       inkscape:vp_z="400.62627 : 92.781756 : 1"
       inkscape:persp3d-origin="113.26751 : 64.054707 : 1"
       id="perspective121-0" />
    <clipPath
       clipPathUnits="userSpaceOnUse"
       id="clipPath1105">
      <g
         inkscape:label="Clip"
         id="use1107"
         style="stroke-width:0.785245">
        <path
           id="path875"
           style="fill:#000000;fill-rule:evenodd;stroke-width:0.785245"
           d="M 0.2109375,0.20507812 V 200.20508 H 200.21094 V 0.20507812 Z M 8,8 H 193 V 193 H 8 Z" />
      </g>
    </clipPath>
    <clipPath
       clipPathUnits="userSpaceOnUse"
       id="clipPath1116">
      <g
         inkscape:label="Clip"
         id="use1118"
         style="stroke-width:0.785245">
        <g
           id="g871"
           clip-path="url(#clipPath1105)"
           style="stroke-width:0.785245">
          <g
             inkscape:label="Clip"
             id="g869"
             style="stroke-width:0.785245">
            <path
               id="path867"
               style="fill:#000000;fill-rule:evenodd;stroke-width:0.785245"
               d="M 0.2109375,0.20507812 V 200.20508 H 200.21094 V 0.20507812 Z M 8,8 H 193 V 193 H 8 Z" />
          </g>
        </g>
      </g>
    </clipPath>
    <linearGradient
       id="linearGradient872"
       osb:paint="solid">
      <stop
         style="stop-color:#000000;stop-opacity:1;"
         offset="0"
         id="stop870" />
    </linearGradient>
    <inkscape:perspective
       sodipodi:type="inkscape:persp3d"
       inkscape:vp_x="-115.59402 : 87.723438 : 1"
       inkscape:vp_y="0 : 977.91539 : 0"
       inkscape:vp_z="429.6992 : 97.558241 : 1"
       inkscape:persp3d-origin="104.92419 : 66.372285 : 1"
       id="perspective121-3" />
    <inkscape:perspective
       sodipodi:type="inkscape:persp3d"
       inkscape:vp_x="-81.845529 : 83.722395 : 1"
       inkscape:vp_y="0 : 900.81023 : 0"
       inkscape:vp_z="400.62627 : 92.781756 : 1"
       inkscape:persp3d-origin="113.26751 : 64.054707 : 1"
       id="perspective121-0-4" />
    <clipPath
       clipPathUnits="userSpaceOnUse"
       id="clipPath1105-7">
      <g
         inkscape:label="Clip"
         id="use1107-0">
        <path
           id="path28"
           style="fill:#000000;fill-rule:evenodd"
           d="M 0.2109375,0.20507812 V 200.20508 H 200.21094 V 0.20507812 Z M 8,8 H 193 V 193 H 8 Z" />
      </g>
    </clipPath>
    <clipPath
       clipPathUnits="userSpaceOnUse"
       id="clipPath1116-3">
      <g
         inkscape:label="Clip"
         id="use1118-1">
        <g
           id="g24"
           clip-path="url(#clipPath1105-7)">
          <g
             inkscape:label="Clip"
             id="g22">
            <path
               id="path20"
               style="fill:#000000;fill-rule:evenodd"
               d="M 0.2109375,0.20507812 V 200.20508 H 200.21094 V 0.20507812 Z M 8,8 H 193 V 193 H 8 Z" />
          </g>
        </g>
      </g>
    </clipPath>
    <filter
       style="color-interpolation-filters:sRGB;"
       inkscape:label="Drop Shadow"
       id="filter947">
      <feFlood
         flood-opacity="0.498039"
         flood-color="rgb(0,0,0)"
         result="flood"
         id="feFlood937" />
      <feComposite
         in="flood"
         in2="SourceGraphic"
         operator="in"
         result="composite1"
         id="feComposite939" />
      <feGaussianBlur
         in="composite1"
         stdDeviation="7.2"
         result="blur"
         id="feGaussianBlur941" />
      <feOffset
         dx="-6"
         dy="6"
         result="offset"
         id="feOffset943" />
      <feComposite
         in="SourceGraphic"
         in2="offset"
         operator="over"
         result="composite2"
         id="feComposite945" />
    </filter>
  </defs>
  <sodipodi:namedview
     pagecolor="#ffffff"
     bordercolor="#666666"
     borderopacity="1"
     objecttolerance="10"
     gridtolerance="10"
     guidetolerance="10"
     inkscape:pageopacity="0"
     inkscape:pageshadow="2"
     inkscape:window-width="1920"
     inkscape:window-height="986"
     id="namedview1283"
     showgrid="false"
     inkscape:zoom="0.79307804"
     inkscape:cx="404.96562"
     inkscape:cy="331.5"
     inkscape:window-x="-11"
     inkscape:window-y="-11"
     inkscape:window-maximized="1"
     inkscape:current-layer="ac356da0-b129-4ca5-aecc-4700531dd101"
     inkscape:document-rotation="0" />
  <title
     id="title1206">docu_tree</title>
  <circle
     cx="321"
     cy="321"
     r="321"
     fill="#f2f2f2"
     id="circle1208"
     style="fill:#6b4b85;fill-opacity:1" />
  <ellipse
     cx="559"
     cy="635.49998"
     rx="514"
     ry="27.50002"
     fill="#3f3d56"
     id="ellipse1210" />
  <ellipse
     cx="558"
     cy="627"
     rx="460"
     ry="22"
     opacity="0.2"
     id="ellipse1212" />
  <rect
     x="131"
     y="152.5"
     width="840"
     height="50"
     fill="#3f3d56"
     id="rect1214" />
  <path
     d="M166.5,727.3299A21.67009,21.67009,0,0,0,188.1701,749H984.8299A21.67009,21.67009,0,0,0,1006.5,727.3299V296h-840Z"
     transform="translate(-35.5 -118.5)"
     fill="#3f3d56"
     id="path1216" />
  <path
     d="M984.8299,236H188.1701A21.67009,21.67009,0,0,0,166.5,257.6701V296h840V257.6701A21.67009,21.67009,0,0,0,984.8299,236Z"
     transform="translate(-35.5 -118.5)"
     fill="#3f3d56"
     id="path1218" />
  <path
     d="M984.8299,236H188.1701A21.67009,21.67009,0,0,0,166.5,257.6701V296h840V257.6701A21.67009,21.67009,0,0,0,984.8299,236Z"
     transform="translate(-35.5 -118.5)"
     opacity="0.2"
     id="path1220" />
  <circle
     cx="181"
     cy="147.5"
     r="13"
     fill="#3f3d56"
     id="circle1222"
     style="fill:#e53d56;fill-opacity:1" />
  <circle
     cx="217"
     cy="147.5"
     r="13"
     fill="#3f3d56"
     id="circle1224"
     style="fill:#ffff85;fill-opacity:1" />
  <circle
     cx="253"
     cy="147.5"
     r="13"
     fill="#3f3d56"
     id="circle1226"
     style="fill:#3fdb56;fill-opacity:1" />
  <rect
     x="168"
     y="213.5"
     width="337"
     height="386"
     rx="5.33505"
     fill="#606060"
     id="rect1228"
     style="fill:#e8e8e8;fill-opacity:1" />
  <rect
     x="603"
     y="272.5"
     width="284"
     height="22"
     rx="5.47638"
     fill="#2e8555"
     id="rect1230"
     style="fill:#6b4b85;fill-opacity:1" />
  <rect
     x="537"
     y="352.5"
     width="416"
     height="15"
     rx="5.47638"
     fill="#2e8555"
     id="rect1232"
     style="fill:#5e4772;fill-opacity:1" />
  <rect
     x="537"
     y="396.5"
     width="416"
     height="15"
     rx="5.47638"
     fill="#2e8555"
     id="rect1234"
     style="fill:#5e4772;fill-opacity:1" />
  <rect
     x="537"
     y="440.5"
     width="416"
     height="15"
     rx="5.47638"
     fill="#2e8555"
     id="rect1236"
     style="fill:#5e4772;fill-opacity:1" />
  <rect
     x="537"
     y="484.5"
     width="416"
     height="15"
     rx="5.47638"
     fill="#2e8555"
     id="rect1238"
     style="fill:#5e4772;fill-opacity:1" />
  <rect
     x="865"
     y="552.5"
     width="88"
     height="26"
     rx="7.02756"
     fill="#3ecc5f"
     id="rect1240"
     style="fill:#6b4b85;fill-opacity:1" />
  <path
     d="M1088.60287,624.61594a30.11371,30.11371,0,0,0,3.98291-15.266c0-13.79652-8.54358-24.98081-19.08256-24.98081s-19.08256,11.18429-19.08256,24.98081a30.11411,30.11411,0,0,0,3.98291,15.266,31.248,31.248,0,0,0,0,30.53213,31.248,31.248,0,0,0,0,30.53208,31.248,31.248,0,0,0,0,30.53208,30.11408,30.11408,0,0,0-3.98291,15.266c0,13.79652,8.54353,24.98081,19.08256,24.98081s19.08256-11.18429,19.08256-24.98081a30.11368,30.11368,0,0,0-3.98291-15.266,31.248,31.248,0,0,0,0-30.53208,31.248,31.248,0,0,0,0-30.53208,31.248,31.248,0,0,0,0-30.53213Z"
     transform="translate(-35.5 -118.5)"
     fill="#3f3d56"
     id="path1242"
     style="fill:#691600;fill-opacity:1" />
  <ellipse
     cx="1038.00321"
     cy="460.31783"
     rx="19.08256"
     ry="24.9808"
     fill="#3f3d56"
     id="ellipse1244" />
  <ellipse
     cx="1038.00321"
     cy="429.78574"
     rx="19.08256"
     ry="24.9808"
     fill="#3f3d56"
     id="ellipse1246" />
  <path
     d="M1144.93871,339.34489a91.61081,91.61081,0,0,0,7.10658-10.46092l-50.141-8.23491,54.22885.4033a91.566,91.566,0,0,0,1.74556-72.42605l-72.75449,37.74139,67.09658-49.32086a91.41255,91.41255,0,1,0-150.971,102.29805,91.45842,91.45842,0,0,0-10.42451,16.66946l65.0866,33.81447-69.40046-23.292a91.46011,91.46011,0,0,0,14.73837,85.83669,91.40575,91.40575,0,1,0,143.68892,0,91.41808,91.41808,0,0,0,0-113.02862Z"
     transform="translate(-35.5 -118.5)"
     fill="#3ecc5f"
     fill-rule="evenodd"
     id="path1248" />
  <path
     d="M981.6885,395.8592a91.01343,91.01343,0,0,0,19.56129,56.51431,91.40575,91.40575,0,1,0,143.68892,0C1157.18982,436.82067,981.6885,385.60008,981.6885,395.8592Z"
     transform="translate(-35.5 -118.5)"
     opacity="0.1"
     id="path1250" />
  <g
     id="g935"
     transform="matrix(1.3805602,0,0,1.3805602,198.53831,266.62912)">
    <text
       xml:space="preserve"
       style="font-style:normal;font-weight:normal;font-size:40px;line-height:1.25;font-family:sans-serif;fill:#000000;fill-opacity:1;stroke:none;"
       x="71.951218"
       y="96.747971"
       id="text197"><tspan
         sodipodi:role="line"
         id="tspan195"
         x="71.951218"
         y="96.747971" /></text>
    <path
       id="text260"
       style="font-style:normal;font-variant:normal;font-weight:300;font-stretch:normal;font-size:106.667px;line-height:0.35;font-family:'Brandon Grotesque';-inkscape-font-specification:'Brandon Grotesque Light';letter-spacing:-11px;word-spacing:0px;"
       sodipodi:type="inkscape:offset"
       inkscape:radius="1.7455618"
       inkscape:original="M 148.97461 112.78906 C 148.65461 112.78906 148.33518 112.97627 148.22852 113.34961 L 128.60156 185.5625 L 107.9082 114.30859 C 107.80154 113.98859 107.58758 113.88357 107.26758 113.99023 L 106.41406 114.30859 C 106.09406 114.41526 105.98708 114.62922 106.09375 114.94922 L 127.85352 190.15039 C 128.06685 190.89706 129.13432 190.89706 129.34766 190.15039 L 148.97461 118.04297 L 169.56055 190.15039 C 169.77388 190.89706 170.84135 190.89706 171.05469 190.15039 L 192.06836 114.94922 C 192.17503 114.62922 192.06805 114.41526 191.74805 114.30859 L 190.89453 113.99023 C 190.57453 113.88357 190.36057 113.98859 190.25391 114.30859 L 170.30859 185.45703 L 149.7207 113.34961 C 149.61404 112.97627 149.29461 112.78906 148.97461 112.78906 z M 83.601562 113.13672 C 66.854844 113.13672 60.347656 123.16271 60.347656 131.80273 C 60.347656 144.17611 69.733918 148.22999 82.640625 151.75 C 96.187334 155.37668 105.4668 159.53541 105.4668 171.16211 C 105.4668 180.44214 95.227822 188.01562 83.814453 188.01562 C 71.761082 188.01562 63.86714 180.97607 62.480469 179.80273 C 62.160468 179.48273 61.841485 179.37531 61.521484 179.69531 L 61.09375 180.12305 C 60.773749 180.44305 60.773749 180.76203 61.09375 181.08203 C 62.480421 182.36204 71.12108 189.93555 83.814453 189.93555 C 96.294492 189.93555 107.38672 181.40214 107.38672 171.16211 C 107.38672 158.78874 98.107208 153.99009 83.173828 149.83008 C 70.693789 146.5234 62.267578 142.68277 62.267578 131.80273 C 62.267578 124.01604 68.134848 115.05664 83.601562 115.05664 C 93.414926 115.05664 100.98828 120.2832 100.98828 120.2832 C 101.41495 120.49654 101.62846 120.38836 101.8418 120.06836 L 102.26758 119.42969 C 102.48091 119.10969 102.37469 118.78951 102.05469 118.57617 C 102.05469 118.57617 94.268262 113.13672 83.601562 113.13672 z "
       d="m 148.97461,111.04297 c -1.00081,0 -2.10664,0.71591 -2.42383,1.82617 a 1.7457364,1.7457364 0 0 0 -0.006,0.0234 l -17.99804,66.22265 -18.9629,-65.29296 a 1.7457364,1.7457364 0 0 0 -0.0195,-0.0664 c -0.14593,-0.43783 -0.49271,-1.01876 -1.12109,-1.33008 -0.62838,-0.31132 -1.29475,-0.23637 -1.72852,-0.0918 a 1.7457364,1.7457364 0 0 0 -0.0566,0.0215 l -0.79687,0.29687 c -0.43681,0.14561 -1.01489,0.48875 -1.32813,1.11524 -0.31324,0.62649 -0.24131,1.29756 -0.0957,1.73437 l -0.0215,-0.0684 21.75976,75.19727 c 0.31794,1.11281 1.42718,1.82422 2.42578,1.82422 0.99861,0 2.10588,-0.71142 2.42383,-1.82422 a 1.7457364,1.7457364 0 0 0 0.006,-0.0215 l 17.98437,-66.07032 18.86719,66.08985 a 1.7457364,1.7457364 0 0 0 0,0.002 c 0.31794,1.11281 1.42522,1.82422 2.42383,1.82422 0.99861,0 2.10783,-0.71142 2.42578,-1.82422 a 1.7457364,1.7457364 0 0 0 0.004,-0.01 l 21.01367,-75.20117 -0.0254,0.082 c 0.14561,-0.43681 0.21754,-1.10788 -0.0957,-1.73437 -0.31324,-0.62649 -0.89132,-0.96963 -1.32813,-1.11524 l -0.79687,-0.29687 a 1.7457364,1.7457364 0 0 0 -0.0566,-0.0215 c -0.43377,-0.14457 -1.10014,-0.21952 -1.72852,0.0918 -0.62838,0.31132 -0.97516,0.89225 -1.12109,1.33008 a 1.7457364,1.7457364 0 0 0 -0.0254,0.082 l -18.2793,65.20703 -18.89453,-66.17383 a 1.7457364,1.7457364 0 0 0 0,-0.002 c -0.31719,-1.11026 -1.42303,-1.82617 -2.42383,-1.82617 z m -65.373048,0.34765 c -8.721705,0 -15.037395,2.64692 -19.11914,6.58204 -4.081745,3.93511 -5.880859,9.07184 -5.88086,13.83007 0,6.62808 2.691552,11.42282 6.998047,14.68555 4.306495,3.26273 10.068198,5.16881 16.582032,6.94531 a 1.7457364,1.7457364 0 0 0 0.0078,0.002 c 6.708527,1.79598 12.239596,3.7315 15.912109,6.42773 3.672518,2.69623 5.619138,5.94987 5.619138,11.29883 0,3.99803 -2.20395,7.72013 -5.861325,10.52148 -3.657378,2.80135 -8.724334,4.58594 -14.044922,4.58594 -11.373729,0 -18.685942,-6.51175 -20.207031,-7.79883 l 0.107422,0.0977 c -0.296007,-0.29601 -0.705163,-0.66044 -1.423828,-0.78125 -0.718665,-0.12082 -1.569787,0.23971 -2.003907,0.67383 l -0.427734,0.42773 c -0.365062,0.36506 -0.751953,0.97232 -0.751953,1.71485 0,0.74253 0.386891,1.34783 0.751953,1.71289 a 1.7457364,1.7457364 0 0 0 0.05078,0.0488 c 1.520691,1.40373 10.516597,9.31641 23.904297,9.31641 6.637871,0 12.887196,-2.25123 17.546877,-5.92187 4.65968,-3.67065 7.77148,-8.84737 7.77148,-14.59766 0,-6.62305 -2.65487,-11.5928 -7.17969,-15.12305 -4.52481,-3.53025 -10.766748,-5.78914 -18.310542,-7.89062 a 1.7457364,1.7457364 0 0 0 -0.02148,-0.006 c -6.172303,-1.6354 -11.215594,-3.40851 -14.53711,-5.88477 -3.321515,-2.47626 -5.070312,-5.46568 -5.070312,-10.45508 0,-3.45491 1.28813,-7.15799 4.320312,-10.02343 3.032183,-2.86545 7.871272,-4.97657 15.267578,-4.97657 9.193578,0 16.394532,4.91797 16.394532,4.91797 a 1.7457364,1.7457364 0 0 0 0.210936,0.12305 c 0.42307,0.21154 1.08786,0.41658 1.79297,0.20313 0.70511,-0.21346 1.08953,-0.70169 1.29492,-1.00977 l 0.42578,-0.63867 c 0.32988,-0.49483 0.50032,-1.24489 0.32422,-1.89258 -0.17509,-0.64401 -0.5968,-1.09386 -1.01562,-1.375 -0.0379,-0.0266 -8.193749,-5.74023 -19.427738,-5.74024 z"
       transform="translate(0.6035525,2.6982238)" />
    <path
       id="path44"
       style="fill:none;stroke:#000000;stroke-width:6.74761;stroke-linecap:butt;stroke-linejoin:miter;stroke-miterlimit:4;stroke-dasharray:none;stroke-opacity:1;"
       sodipodi:type="inkscape:offset"
       inkscape:radius="-2.0694299"
       inkscape:original="M 2.8183594 2.7089844 L 3.0449219 198.04102 L 197.9043 198.04102 C 197.9798 132.93034 198.05534 67.819661 198.13086 2.7089844 L 2.8183594 2.7089844 z "
       d="M 4.890625,4.7792969 5.1113281,195.9707 H 195.83594 c 0.0739,-63.73047 0.14873,-127.460935 0.22265,-191.1914031 z"
       transform="matrix(1.0109794,0,0,1.0109023,-1.5295341,-1.4208128)" />
  </g>
</svg>
