<?xml version="1.0" encoding="UTF-8" standalone="no"?>
<svg
   xmlns:osb="http://www.openswatchbook.org/uri/2009/osb"
   xmlns:dc="http://purl.org/dc/elements/1.1/"
   xmlns:cc="http://creativecommons.org/ns#"
   xmlns:rdf="http://www.w3.org/1999/02/22-rdf-syntax-ns#"
   xmlns:svg="http://www.w3.org/2000/svg"
   xmlns="http://www.w3.org/2000/svg"
   xmlns:sodipodi="http://sodipodi.sourceforge.net/DTD/sodipodi-0.dtd"
   xmlns:inkscape="http://www.inkscape.org/namespaces/inkscape"
   width="1088"
   height="687.962"
   viewBox="0 0 1088 687.962"
   version="1.1"
   id="svg334"
   sodipodi:docname="undraw_docusaurus_mountain.svg"
   inkscape:version="1.0.2 (e86c870879, 2021-01-15, custom)">
  <metadata
     id="metadata340">
    <rdf:RDF>
      <cc:Work
         rdf:about="">
        <dc:format>image/svg+xml</dc:format>
        <dc:type
           rdf:resource="http://purl.org/dc/dcmitype/StillImage" />
      </cc:Work>
    </rdf:RDF>
  </metadata>
  <defs
     id="defs338">
    <inkscape:perspective
       sodipodi:type="inkscape:persp3d"
       inkscape:vp_x="-115.59402 : 87.723438 : 1"
       inkscape:vp_y="0 : 977.91539 : 0"
       inkscape:vp_z="429.6992 : 97.558241 : 1"
       inkscape:persp3d-origin="104.92419 : 66.372285 : 1"
       id="perspective121" />
    <inkscape:perspective
       sodipodi:type="inkscape:persp3d"
       inkscape:vp_x="-81.845529 : 83.722395 : 1"
       inkscape:vp_y="0 : 900.81023 : 0"
       inkscape:vp_z="400.62627 : 92.781756 : 1"
       inkscape:persp3d-origin="113.26751 : 64.054707 : 1"
       id="perspective121-0" />
    <inkscape:perspective
       sodipodi:type="inkscape:persp3d"
       inkscape:vp_x="-115.59402 : 87.723438 : 1"
       inkscape:vp_y="0 : 977.91539 : 0"
       inkscape:vp_z="429.6992 : 97.558241 : 1"
       inkscape:persp3d-origin="104.92419 : 66.372285 : 1"
       id="perspective121-7" />
    <inkscape:perspective
       sodipodi:type="inkscape:persp3d"
       inkscape:vp_x="-81.845529 : 83.722395 : 1"
       inkscape:vp_y="0 : 900.81023 : 0"
       inkscape:vp_z="400.62627 : 92.781756 : 1"
       inkscape:persp3d-origin="113.26751 : 64.054707 : 1"
       id="perspective121-0-3" />
    <clipPath
       clipPathUnits="userSpaceOnUse"
       id="clipPath1105">
      <g
         inkscape:label="Clip"
         id="use1107">
        <path
           id="path903"
           style="fill:#000000;fill-rule:evenodd"
           d="M 0.2109375,0.20507812 V 200.20508 H 200.21094 V 0.20507812 Z M 8,8 H 193 V 193 H 8 Z" />
      </g>
    </clipPath>
    <clipPath
       clipPathUnits="userSpaceOnUse"
       id="clipPath1116">
      <g
         inkscape:label="Clip"
         id="use1118">
        <g
           id="g899"
           clip-path="url(#clipPath1105)">
          <g
             inkscape:label="Clip"
             id="g897">
            <path
               id="path895"
               style="fill:#000000;fill-rule:evenodd"
               d="M 0.2109375,0.20507812 V 200.20508 H 200.21094 V 0.20507812 Z M 8,8 H 193 V 193 H 8 Z" />
          </g>
        </g>
      </g>
    </clipPath>
    <filter
       style="color-interpolation-filters:sRGB;"
       inkscape:label="Drop Shadow"
       id="filter1058">
      <feFlood
         flood-opacity="0.498039"
         flood-color="rgb(0,0,0)"
         result="flood"
         id="feFlood1048" />
      <feComposite
         in="flood"
         in2="SourceGraphic"
         operator="in"
         result="composite1"
         id="feComposite1050" />
      <feGaussianBlur
         in="composite1"
         stdDeviation="6"
         result="blur"
         id="feGaussianBlur1052" />
      <feOffset
         dx="-6.34675"
         dy="8.20433"
         result="offset"
         id="feOffset1054" />
      <feComposite
         in="SourceGraphic"
         in2="offset"
         operator="over"
         result="composite2"
         id="feComposite1056" />
    </filter>
    <linearGradient
       id="linearGradient872"
       osb:paint="solid">
      <stop
         style="stop-color:#000000;stop-opacity:1;"
         offset="0"
         id="stop870" />
    </linearGradient>
    <inkscape:perspective
       sodipodi:type="inkscape:persp3d"
       inkscape:vp_x="-115.59402 : 87.723438 : 1"
       inkscape:vp_y="0 : 977.91539 : 0"
       inkscape:vp_z="429.6992 : 97.558241 : 1"
       inkscape:persp3d-origin="104.92419 : 66.372285 : 1"
       id="perspective121-4" />
    <inkscape:perspective
       sodipodi:type="inkscape:persp3d"
       inkscape:vp_x="-81.845529 : 83.722395 : 1"
       inkscape:vp_y="0 : 900.81023 : 0"
       inkscape:vp_z="400.62627 : 92.781756 : 1"
       inkscape:persp3d-origin="113.26751 : 64.054707 : 1"
       id="perspective121-0-8" />
    <clipPath
       clipPathUnits="userSpaceOnUse"
       id="clipPath1105-0">
      <g
         inkscape:label="Clip"
         id="use1107-7">
        <path
           id="path28"
           style="fill:#000000;fill-rule:evenodd"
           d="M 0.2109375,0.20507812 V 200.20508 H 200.21094 V 0.20507812 Z M 8,8 H 193 V 193 H 8 Z" />
      </g>
    </clipPath>
    <clipPath
       clipPathUnits="userSpaceOnUse"
       id="clipPath1116-1">
      <g
         inkscape:label="Clip"
         id="use1118-7">
        <g
           id="g24"
           clip-path="url(#clipPath1105-0)">
          <g
             inkscape:label="Clip"
             id="g22">
            <path
               id="path20"
               style="fill:#000000;fill-rule:evenodd"
               d="M 0.2109375,0.20507812 V 200.20508 H 200.21094 V 0.20507812 Z M 8,8 H 193 V 193 H 8 Z" />
          </g>
        </g>
      </g>
    </clipPath>
    <filter
       style="color-interpolation-filters:sRGB;"
       inkscape:label="Drop Shadow"
       id="filter1345">
      <feFlood
         flood-opacity="0.498039"
         flood-color="rgb(0,0,0)"
         result="flood"
         id="feFlood1335" />
      <feComposite
         in="flood"
         in2="SourceGraphic"
         operator="in"
         result="composite1"
         id="feComposite1337" />
      <feGaussianBlur
         in="composite1"
         stdDeviation="7.2"
         result="blur"
         id="feGaussianBlur1339" />
      <feOffset
         dx="-6"
         dy="6"
         result="offset"
         id="feOffset1341" />
      <feComposite
         in="SourceGraphic"
         in2="offset"
         operator="over"
         result="fbSourceGraphic"
         id="feComposite1343" />
      <feColorMatrix
         result="fbSourceGraphicAlpha"
         in="fbSourceGraphic"
         values="0 0 0 -1 0 0 0 0 -1 0 0 0 0 -1 0 0 0 0 1 0"
         id="feColorMatrix1347" />
      <feFlood
         id="feFlood1349"
         flood-opacity="0.498039"
         flood-color="rgb(0,0,0)"
         result="flood"
         in="fbSourceGraphic" />
      <feComposite
         in2="fbSourceGraphic"
         id="feComposite1351"
         in="flood"
         operator="in"
         result="composite1" />
      <feGaussianBlur
         id="feGaussianBlur1353"
         in="composite1"
         stdDeviation="7.2"
         result="blur" />
      <feOffset
         id="feOffset1355"
         dx="-6"
         dy="6"
         result="offset" />
      <feComposite
         in2="offset"
         id="feComposite1357"
         in="fbSourceGraphic"
         operator="over"
         result="composite2" />
    </filter>
  </defs>
  <sodipodi:namedview
     pagecolor="#ffffff"
     bordercolor="#666666"
     borderopacity="1"
     objecttolerance="10"
     gridtolerance="10"
     guidetolerance="10"
     inkscape:pageopacity="0"
     inkscape:pageshadow="2"
     inkscape:window-width="1920"
     inkscape:window-height="986"
     id="namedview336"
     showgrid="false"
     inkscape:zoom="1.162855"
     inkscape:cx="544"
     inkscape:cy="343.98099"
     inkscape:window-x="-11"
     inkscape:window-y="-11"
     inkscape:window-maximized="1"
     inkscape:current-layer="svg334"
     inkscape:document-rotation="0" />
  <path
     id="Path_83"
     data-name="Path 83"
     d="m 961.81,454.442 c -5.27,45.15 -16.22,81.4 -31.25,110.31 -20,38.52 -54.21,54.04 -84.77,70.28 a 193.275,193.275 0 0 1 -27.46,11.94 c -55.61,19.3 -117.85,14.18 -166.74,3.99 A 657.282,657.282 0 0 0 547.5,637.802 q -14.97,-0.675 -29.97,-0.67 c -15.42,0.02 -293.07,5.29 -360.67,-131.57 -16.69,-33.76 -28.13,-75 -32.24,-125.27 -11.63,-142.12 52.29,-235.46 134.74,-296.47 155.97,-115.41 369.76,-110.57 523.43,7.88 102.36,78.9 198.2,198.31 179.02,362.74 z"
     fill="#3f3d56" />
  <path
     id="Path_84"
     data-name="Path 84"
     d="m 930.56,564.752 c -20,38.52 -47.21,64.04 -77.77,80.28 a 193.272,193.272 0 0 1 -27.46,11.94 c -55.61,19.3 -117.85,14.18 -166.74,3.99 A 657.3,657.3 0 0 0 554.5,647.802 q -14.97,-0.675 -29.97,-0.67 -23.13,0.03 -46.25,1.72 c -100.17,7.36 -253.82,-6.43 -321.42,-143.29 l 169.14,-327.6 62.95,161.619 20.09,51.59 55.37,-75.98 28.59,-39.229 130.2,149.27 36.8,-81.27 254.78,207.919 14.21,11.59 z"
     fill="#f2f2f2" />
  <path
     id="Path_85"
     data-name="Path 85"
     d="m 302,282.962 26,-57 36,83 -31,-60 z"
     opacity="0.1" />
  <path
     id="Path_86"
     data-name="Path 86"
     d="m 554.5,647.802 q -14.97,-0.675 -29.97,-0.67 L 409.04,391.172 Z"
     opacity="0.1" />
  <path
     id="Path_87"
     data-name="Path 87"
     d="M 464.411,315.191 493,292.962 l 130,150 -132,-128 z"
     opacity="0.1" />
  <path
     id="Path_88"
     data-name="Path 88"
     d="m 852.79,645.032 a 193.265,193.265 0 0 1 -27.46,11.94 L 623.2,425.232 Z"
     opacity="0.1" />
  <circle
     id="Ellipse_11"
     data-name="Ellipse 11"
     cx="482"
     cy="101.962"
     r="3"
     fill="#f2f2f2" />
  <circle
     id="Ellipse_12"
     data-name="Ellipse 12"
     cx="399"
     cy="204.96201"
     r="3"
     fill="#f2f2f2" />
  <circle
     id="Ellipse_13"
     data-name="Ellipse 13"
     cx="602"
     cy="222.96201"
     r="2"
     fill="#f2f2f2" />
  <circle
     id="Ellipse_14"
     data-name="Ellipse 14"
     cx="182"
     cy="267.96201"
     r="2"
     fill="#f2f2f2" />
  <circle
     id="Ellipse_15"
     data-name="Ellipse 15"
     cx="614"
     cy="98.961998"
     r="2"
     fill="#f2f2f2" />
  <circle
     id="Ellipse_16"
     data-name="Ellipse 16"
     cx="738"
     cy="194.96201"
     r="2"
     fill="#f2f2f2" />
  <circle
     id="Ellipse_17"
     data-name="Ellipse 17"
     cx="860"
     cy="346.96201"
     r="2"
     fill="#f2f2f2" />
  <path
     id="Path_89"
     data-name="Path 89"
     d="m 306,121.222 h -2.76 v -2.76 h -1.48 v 2.76 H 299 v 1.478 h 2.76 v 2.759 h 1.48 V 122.7 H 306 Z"
     fill="#f2f2f2" />
  <path
     id="Path_90"
     data-name="Path 90"
     d="m 848,424.222 h -2.76 v -2.76 h -1.48 v 2.76 H 841 v 1.478 h 2.76 v 2.759 h 1.48 V 425.7 H 848 Z"
     fill="#f2f2f2" />
  <path
     id="Path_91"
     data-name="Path 91"
     d="m 1088,613.962 c 0,16.569 -243.557,74 -544,74 -300.443,0 -544,-57.431 -544,-74 0,-16.569 243.557,14 544,14 300.443,0 544,-30.568 544,-14 z"
     fill="#3f3d56" />
  <path
     id="Path_92"
     data-name="Path 92"
     d="m 1088,613.962 c 0,16.569 -243.557,74 -544,74 -300.443,0 -544,-57.431 -544,-74 0,-16.569 243.557,14 544,14 300.443,0 544,-30.568 544,-14 z"
     opacity="0.1" />
  <ellipse
     id="Ellipse_18"
     data-name="Ellipse 18"
     cx="544"
     cy="613.96198"
     rx="544"
     ry="30"
     fill="#3f3d56" />
  <path
     id="Path_93"
     data-name="Path 93"
     d="m 568,571.962 c 0,33.137 -14.775,24 -33,24 -18.225,0 -33,9.137 -33,-24 0,-33.137 33,-96 33,-96 0,0 33,62.863 33,96 z"
     fill="#ff6584" />
  <path
     id="Path_94"
     data-name="Path 94"
     d="m 550,584.641 c 0,15.062 -6.716,10.909 -15,10.909 -8.284,0 -15,4.153 -15,-10.909 0,-15.062 15,-43.636 15,-43.636 0,0 15,28.576 15,43.636 z"
     opacity="0.1" />
  <rect
     id="Rectangle_97"
     data-name="Rectangle 97"
     width="92"
     height="18"
     rx="9"
     fill="#2f2e41"
     x="489"
     y="604.96198" />
  <rect
     id="Rectangle_98"
     data-name="Rectangle 98"
     width="92"
     height="18"
     rx="9"
     fill="#2f2e41"
     x="489"
     y="586.96198" />
  <path
     id="Path_95"
     data-name="Path 95"
     d="m 137,490.528 c 0,55.343 34.719,100.126 77.626,100.126"
     fill="#3f3d56" />
  <path
     id="Path_96"
     data-name="Path 96"
     d="m 214.626,590.654 c 0,-55.965 38.745,-101.251 86.626,-101.251"
     fill="#6c63ff" />
  <path
     id="Path_97"
     data-name="Path 97"
     d="m 165.125,495.545 c 0,52.57 22.14,95.109 49.5,95.109"
     fill="#6c63ff" />
  <path
     id="Path_98"
     data-name="Path 98"
     d="m 214.626,590.654 c 0,-71.511 44.783,-129.377 100.126,-129.377"
     fill="#3f3d56" />
  <path
     id="Path_99"
     data-name="Path 99"
     d="m 198.3,591.36 c 0,0 11.009,-0.339 14.326,-2.7 3.317,-2.361 16.934,-5.183 17.757,-1.395 0.823,3.788 16.544,18.844 4.115,18.945 -12.429,0.101 -28.879,-1.936 -32.19,-3.953 C 198.997,600.24 198.3,591.36 198.3,591.36 Z"
     fill="#a8a8a8" />
  <path
     id="Path_100"
     data-name="Path 100"
     d="m 234.716,604.89 c -12.429,0.1 -28.879,-1.936 -32.19,-3.953 -2.522,-1.536 -3.527,-7.048 -3.863,-9.591 l -0.368,0.014 c 0,0 0.7,8.879 4.009,10.9 3.309,2.021 19.761,4.053 32.19,3.953 3.588,-0.029 4.827,-1.305 4.759,-3.2 -0.498,1.142 -1.867,1.855 -4.537,1.877 z"
     opacity="0.2" />
  <path
     id="Path_101"
     data-name="Path 101"
     d="m 721.429,527.062 c 0,38.029 23.857,68.8 53.341,68.8"
     fill="#3f3d56" />
  <path
     id="Path_102"
     data-name="Path 102"
     d="m 774.769,595.863 c 0,-38.456 26.623,-69.575 59.525,-69.575"
     fill="#6c63ff" />
  <path
     id="Path_103"
     data-name="Path 103"
     d="m 740.755,530.509 c 0,36.124 15.213,65.354 34.014,65.354"
     fill="#6c63ff" />
  <path
     id="Path_104"
     data-name="Path 104"
     d="m 774.769,595.863 c 0,-49.139 30.773,-88.9 68.8,-88.9"
     fill="#3f3d56" />
  <path
     id="Path_105"
     data-name="Path 105"
     d="m 763.548,596.348 c 0,0 7.565,-0.233 9.844,-1.856 2.279,-1.623 11.636,-3.562 12.2,-0.958 0.564,2.604 11.368,12.949 2.828,13.018 -8.54,0.069 -19.844,-1.33 -22.119,-2.716 -2.275,-1.386 -2.753,-7.488 -2.753,-7.488 z"
     fill="#a8a8a8" />
  <path
     id="Path_106"
     data-name="Path 106"
     d="m 788.574,605.645 c -8.54,0.069 -19.844,-1.33 -22.119,-2.716 -1.733,-1.056 -2.423,-4.843 -2.654,-6.59 l -0.253,0.01 c 0,0 0.479,6.1 2.755,7.487 2.276,1.387 13.579,2.785 22.119,2.716 2.465,-0.02 3.317,-0.9 3.27,-2.2 -0.343,0.788 -1.283,1.278 -3.118,1.293 z"
     opacity="0.2" />
  <path
     id="Path_107"
     data-name="Path 107"
     d="m 893.813,618.699 c 0,0 11.36,-1.729 14.5,-4.591 3.14,-2.862 16.89,-7.488 18.217,-3.667 1.327,3.821 19.494,17.447 6.633,19.107 -12.861,1.66 -30.153,1.609 -33.835,-0.065 -3.682,-1.674 -5.515,-10.784 -5.515,-10.784 z"
     fill="#a8a8a8" />
  <path
     id="Path_108"
     data-name="Path 108"
     d="m 933.228,628.154 c -12.86,1.659 -30.153,1.609 -33.835,-0.065 -2.8,-1.275 -4.535,-6.858 -5.2,-9.45 l -0.379,0.061 c 0,0 1.833,9.109 5.516,10.783 3.683,1.674 20.975,1.725 33.835,0.065 3.712,-0.479 4.836,-1.956 4.529,-3.906 -0.375,1.246 -1.703,2.156 -4.466,2.512 z"
     opacity="0.2" />
  <path
     id="Path_109"
     data-name="Path 109"
     d="m 614.26,617.881 c 0,0 9.587,-1.459 12.237,-3.875 2.65,-2.416 14.255,-6.32 15.374,-3.095 1.119,3.225 16.452,14.725 5.6,16.125 -10.852,1.4 -25.448,1.358 -28.555,-0.055 -3.107,-1.413 -4.656,-9.1 -4.656,-9.1 z"
     fill="#a8a8a8" />
  <path
     id="Path_110"
     data-name="Path 110"
     d="m 647.524,625.856 c -10.853,1.4 -25.448,1.358 -28.555,-0.055 -2.367,-1.076 -3.827,-5.788 -4.39,-7.976 l -0.32,0.051 c 0,0 1.547,7.687 4.655,9.1 3.108,1.413 17.7,1.456 28.555,0.055 3.133,-0.4 4.081,-1.651 3.822,-3.3 -0.314,1.057 -1.435,1.825 -3.767,2.125 z"
     opacity="0.2" />
  <path
     id="Path_111"
     data-name="Path 111"
     d="m 124.389,613.09 c 0,0 7.463,-1.136 9.527,-3.016 2.064,-1.88 11.1,-4.92 11.969,-2.409 0.869,2.511 12.808,11.463 4.358,12.553 -8.45,1.09 -19.811,1.057 -22.23,-0.043 -2.419,-1.1 -3.624,-7.085 -3.624,-7.085 z"
     fill="#a8a8a8" />
  <path
     id="Path_112"
     data-name="Path 112"
     d="m 148.285,619.302 c -8.449,1.09 -19.811,1.057 -22.23,-0.043 -1.842,-0.838 -2.979,-4.506 -3.417,-6.209 l -0.249,0.04 c 0,0 1.2,5.984 3.624,7.085 2.424,1.101 13.781,1.133 22.23,0.043 2.439,-0.315 3.177,-1.285 2.976,-2.566 -0.246,0.818 -1.119,1.416 -2.934,1.65 z"
     opacity="0.2" />
  <path
     id="Path_113"
     data-name="Path 113"
     d="m 383.7,601.318 c 0,30.22 -42.124,20.873 -93.7,20.873 -51.576,0 -93.074,9.347 -93.074,-20.873 0,-30.22 42.118,-36.793 93.694,-36.793 51.576,0 93.08,6.573 93.08,36.793 z"
     opacity="0.1" />
  <path
     id="Path_114"
     data-name="Path 114"
     d="m 383.7,593.881 c 0,30.22 -42.124,20.873 -93.7,20.873 -51.576,0 -93.074,9.347 -93.074,-20.873 0,-30.22 42.114,-36.8 93.69,-36.8 51.576,0 93.084,6.576 93.084,36.8 z"
     fill="#3f3d56" />
  <g
     id="g963"
     transform="matrix(1.3151625,0,0,1.3151625,221.16821,355.74685)">
    <text
       xml:space="preserve"
       style="font-style:normal;font-weight:normal;font-size:40px;line-height:1.25;font-family:sans-serif;fill:#000000;fill-opacity:1;stroke:none;"
       x="71.951218"
       y="96.747971"
       id="text197"><tspan
         sodipodi:role="line"
         id="tspan195"
         x="71.951218"
         y="96.747971" /></text>
    <path
       id="text260"
       style="font-style:normal;font-variant:normal;font-weight:300;font-stretch:normal;font-size:106.667px;line-height:0.35;font-family:'Brandon Grotesque';-inkscape-font-specification:'Brandon Grotesque Light';letter-spacing:-11px;word-spacing:0px;"
       sodipodi:type="inkscape:offset"
       inkscape:radius="1.7455618"
       inkscape:original="M 148.97461 112.78906 C 148.65461 112.78906 148.33518 112.97627 148.22852 113.34961 L 128.60156 185.5625 L 107.9082 114.30859 C 107.80154 113.98859 107.58758 113.88357 107.26758 113.99023 L 106.41406 114.30859 C 106.09406 114.41526 105.98708 114.62922 106.09375 114.94922 L 127.85352 190.15039 C 128.06685 190.89706 129.13432 190.89706 129.34766 190.15039 L 148.97461 118.04297 L 169.56055 190.15039 C 169.77388 190.89706 170.84135 190.89706 171.05469 190.15039 L 192.06836 114.94922 C 192.17503 114.62922 192.06805 114.41526 191.74805 114.30859 L 190.89453 113.99023 C 190.57453 113.88357 190.36057 113.98859 190.25391 114.30859 L 170.30859 185.45703 L 149.7207 113.34961 C 149.61404 112.97627 149.29461 112.78906 148.97461 112.78906 z M 83.601562 113.13672 C 66.854844 113.13672 60.347656 123.16271 60.347656 131.80273 C 60.347656 144.17611 69.733918 148.22999 82.640625 151.75 C 96.187334 155.37668 105.4668 159.53541 105.4668 171.16211 C 105.4668 180.44214 95.227822 188.01562 83.814453 188.01562 C 71.761082 188.01562 63.86714 180.97607 62.480469 179.80273 C 62.160468 179.48273 61.841485 179.37531 61.521484 179.69531 L 61.09375 180.12305 C 60.773749 180.44305 60.773749 180.76203 61.09375 181.08203 C 62.480421 182.36204 71.12108 189.93555 83.814453 189.93555 C 96.294492 189.93555 107.38672 181.40214 107.38672 171.16211 C 107.38672 158.78874 98.107208 153.99009 83.173828 149.83008 C 70.693789 146.5234 62.267578 142.68277 62.267578 131.80273 C 62.267578 124.01604 68.134848 115.05664 83.601562 115.05664 C 93.414926 115.05664 100.98828 120.2832 100.98828 120.2832 C 101.41495 120.49654 101.62846 120.38836 101.8418 120.06836 L 102.26758 119.42969 C 102.48091 119.10969 102.37469 118.78951 102.05469 118.57617 C 102.05469 118.57617 94.268262 113.13672 83.601562 113.13672 z "
       d="m 148.97461,111.04297 c -1.00081,0 -2.10664,0.71591 -2.42383,1.82617 a 1.7457364,1.7457364 0 0 0 -0.006,0.0234 l -17.99804,66.22265 -18.9629,-65.29296 a 1.7457364,1.7457364 0 0 0 -0.0195,-0.0664 c -0.14593,-0.43783 -0.49271,-1.01876 -1.12109,-1.33008 -0.62838,-0.31132 -1.29475,-0.23637 -1.72852,-0.0918 a 1.7457364,1.7457364 0 0 0 -0.0566,0.0215 l -0.79687,0.29687 c -0.43681,0.14561 -1.01489,0.48875 -1.32813,1.11524 -0.31324,0.62649 -0.24131,1.29756 -0.0957,1.73437 l -0.0215,-0.0684 21.75976,75.19727 c 0.31794,1.11281 1.42718,1.82422 2.42578,1.82422 0.99861,0 2.10588,-0.71142 2.42383,-1.82422 a 1.7457364,1.7457364 0 0 0 0.006,-0.0215 l 17.98437,-66.07032 18.86719,66.08985 a 1.7457364,1.7457364 0 0 0 0,0.002 c 0.31794,1.11281 1.42522,1.82422 2.42383,1.82422 0.99861,0 2.10783,-0.71142 2.42578,-1.82422 a 1.7457364,1.7457364 0 0 0 0.004,-0.01 l 21.01367,-75.20117 -0.0254,0.082 c 0.14561,-0.43681 0.21754,-1.10788 -0.0957,-1.73437 -0.31324,-0.62649 -0.89132,-0.96963 -1.32813,-1.11524 l -0.79687,-0.29687 a 1.7457364,1.7457364 0 0 0 -0.0566,-0.0215 c -0.43377,-0.14457 -1.10014,-0.21952 -1.72852,0.0918 -0.62838,0.31132 -0.97516,0.89225 -1.12109,1.33008 a 1.7457364,1.7457364 0 0 0 -0.0254,0.082 l -18.2793,65.20703 -18.89453,-66.17383 a 1.7457364,1.7457364 0 0 0 0,-0.002 c -0.31719,-1.11026 -1.42303,-1.82617 -2.42383,-1.82617 z m -65.373048,0.34765 c -8.721705,0 -15.037395,2.64692 -19.11914,6.58204 -4.081745,3.93511 -5.880859,9.07184 -5.88086,13.83007 0,6.62808 2.691552,11.42282 6.998047,14.68555 4.306495,3.26273 10.068198,5.16881 16.582032,6.94531 a 1.7457364,1.7457364 0 0 0 0.0078,0.002 c 6.708527,1.79598 12.239596,3.7315 15.912109,6.42773 3.672518,2.69623 5.619138,5.94987 5.619138,11.29883 0,3.99803 -2.20395,7.72013 -5.861325,10.52148 -3.657378,2.80135 -8.724334,4.58594 -14.044922,4.58594 -11.373729,0 -18.685942,-6.51175 -20.207031,-7.79883 l 0.107422,0.0977 c -0.296007,-0.29601 -0.705163,-0.66044 -1.423828,-0.78125 -0.718665,-0.12082 -1.569787,0.23971 -2.003907,0.67383 l -0.427734,0.42773 c -0.365062,0.36506 -0.751953,0.97232 -0.751953,1.71485 0,0.74253 0.386891,1.34783 0.751953,1.71289 a 1.7457364,1.7457364 0 0 0 0.05078,0.0488 c 1.520691,1.40373 10.516597,9.31641 23.904297,9.31641 6.637871,0 12.887196,-2.25123 17.546877,-5.92187 4.65968,-3.67065 7.77148,-8.84737 7.77148,-14.59766 0,-6.62305 -2.65487,-11.5928 -7.17969,-15.12305 -4.52481,-3.53025 -10.766748,-5.78914 -18.310542,-7.89062 a 1.7457364,1.7457364 0 0 0 -0.02148,-0.006 c -6.172303,-1.6354 -11.215594,-3.40851 -14.53711,-5.88477 -3.321515,-2.47626 -5.070312,-5.46568 -5.070312,-10.45508 0,-3.45491 1.28813,-7.15799 4.320312,-10.02343 3.032183,-2.86545 7.871272,-4.97657 15.267578,-4.97657 9.193578,0 16.394532,4.91797 16.394532,4.91797 a 1.7457364,1.7457364 0 0 0 0.210936,0.12305 c 0.42307,0.21154 1.08786,0.41658 1.79297,0.20313 0.70511,-0.21346 1.08953,-0.70169 1.29492,-1.00977 l 0.42578,-0.63867 c 0.32988,-0.49483 0.50032,-1.24489 0.32422,-1.89258 -0.17509,-0.64401 -0.5968,-1.09386 -1.01562,-1.375 -0.0379,-0.0266 -8.193749,-5.74023 -19.427738,-5.74024 z"
       transform="translate(0.6035525,2.6982238)" />
    <path
       id="path44"
       style="fill:none;stroke:#000000;stroke-width:6.74761;stroke-linecap:butt;stroke-linejoin:miter;stroke-miterlimit:4;stroke-dasharray:none;stroke-opacity:1;"
       sodipodi:type="inkscape:offset"
       inkscape:radius="-2.0694299"
       inkscape:original="M 2.8183594 2.7089844 L 3.0449219 198.04102 L 197.9043 198.04102 C 197.9798 132.93034 198.05534 67.819661 198.13086 2.7089844 L 2.8183594 2.7089844 z "
       d="M 4.890625,4.7792969 5.1113281,195.9707 H 195.83594 c 0.0739,-63.73047 0.14873,-127.460935 0.22265,-191.1914031 z"
       transform="matrix(1.0109794,0,0,1.0109023,-1.5295341,-1.4208128)" />
  </g>
</svg>
